<?xml version="1.0" encoding="utf-8"?>
<!-- Generator: Adobe Illustrator 23.0.0, SVG Export Plug-In . SVG Version: 6.00 Build 0)  -->
<svg version="1.1" id="レイヤー_1" xmlns="http://www.w3.org/2000/svg" xmlns:xlink="http://www.w3.org/1999/xlink" x="0px"
	 y="0px" viewBox="0 0 16 15" style="enable-background:new 0 0 16 15;" xml:space="preserve">
<style type="text/css">
	.st0{clip-path:url(#SVGID_2_);fill:#FFFFFF;}
</style>
<g>
	<defs>
		<rect id="SVGID_1_" width="16" height="15"/>
	</defs>
	<clipPath id="SVGID_2_">
		<use xlink:href="#SVGID_1_"  style="overflow:visible;"/>
	</clipPath>
	<path class="st0" d="M7.66,0C5.63,0,5.37,0.01,4.57,0.04c-0.8,0.04-1.34,0.16-1.82,0.35C2.26,0.58,1.84,0.84,1.42,1.26
		C1.01,1.68,0.75,2.1,0.56,2.59C0.37,3.06,0.25,3.61,0.21,4.41C0.17,5.21,0.17,5.46,0.17,7.5s0.01,2.29,0.04,3.09
		c0.04,0.8,0.16,1.34,0.35,1.82c0.19,0.49,0.45,0.91,0.87,1.33c0.42,0.42,0.84,0.67,1.33,0.87c0.48,0.18,1.02,0.31,1.82,0.35
		C5.37,14.99,5.63,15,7.67,15s2.29-0.01,3.09-0.04c0.8-0.04,1.34-0.16,1.82-0.35c0.49-0.19,0.91-0.45,1.33-0.87
		c0.42-0.42,0.67-0.84,0.87-1.33c0.18-0.48,0.31-1.02,0.35-1.82c0.04-0.8,0.04-1.05,0.04-3.09s-0.01-2.29-0.04-3.09
		c-0.04-0.8-0.16-1.34-0.35-1.82c-0.19-0.49-0.45-0.91-0.87-1.33c-0.42-0.42-0.84-0.67-1.33-0.87c-0.48-0.18-1.02-0.31-1.82-0.35
		C9.95,0.01,9.7,0,7.66,0z M7.66,1.35c2,0,2.24,0.01,3.03,0.04c0.73,0.03,1.13,0.15,1.39,0.26c0.35,0.14,0.6,0.3,0.86,0.56
		c0.26,0.26,0.43,0.51,0.56,0.86c0.1,0.26,0.23,0.66,0.26,1.39c0.04,0.79,0.04,1.03,0.04,3.03s-0.01,2.24-0.04,3.03
		c-0.03,0.73-0.15,1.13-0.26,1.39c-0.14,0.35-0.3,0.6-0.56,0.86c-0.26,0.26-0.51,0.43-0.86,0.56c-0.26,0.1-0.66,0.23-1.39,0.26
		c-0.79,0.04-1.03,0.04-3.03,0.04s-2.24-0.01-3.03-0.04c-0.73-0.03-1.13-0.15-1.39-0.26c-0.35-0.14-0.6-0.3-0.86-0.56
		c-0.26-0.26-0.43-0.51-0.56-0.86c-0.1-0.26-0.23-0.66-0.26-1.39C1.52,9.74,1.51,9.5,1.51,7.5s0.01-2.24,0.04-3.03
		c0.03-0.73,0.15-1.13,0.26-1.39c0.14-0.35,0.3-0.6,0.56-0.86c0.26-0.26,0.51-0.43,0.86-0.56C3.5,1.55,3.9,1.43,4.63,1.4
		C5.42,1.36,5.66,1.35,7.66,1.35z"/>
	<path class="st0" d="M7.66,10c-1.38,0-2.5-1.12-2.5-2.5S6.28,5,7.66,5c1.38,0,2.5,1.12,2.5,2.5S9.04,10,7.66,10z M7.66,3.65
		c-2.12,0-3.85,1.72-3.85,3.85s1.72,3.85,3.85,3.85s3.85-1.72,3.85-3.85S9.79,3.65,7.66,3.65z"/>
	<path class="st0" d="M12.3,2.86c0.35,0.35,0.35,0.92,0,1.27c-0.35,0.35-0.92,0.35-1.27,0c-0.35-0.35-0.35-0.92,0-1.27
		C11.38,2.51,11.95,2.51,12.3,2.86"/>
</g>
</svg>
