<?xml version="1.0" encoding="utf-8"?>
<!-- Generator: Adobe Illustrator 23.0.0, SVG Export Plug-In . SVG Version: 6.00 Build 0)  -->
<svg version="1.1" id="レイヤー_1" xmlns="http://www.w3.org/2000/svg" xmlns:xlink="http://www.w3.org/1999/xlink" x="0px"
	 y="0px" viewBox="0 0 9.98 7.03" style="enable-background:new 0 0 9.98 7.03;" xml:space="preserve">
<style type="text/css">
	.st0{fill:#FFFFFF;}
</style>
<path class="st0" d="M9.77,1.1C9.66,0.67,9.32,0.33,8.89,0.21C8.11,0,4.99,0,4.99,0s-3.12,0-3.9,0.21C0.66,0.32,0.32,0.66,0.2,1.1
	C0,1.88,0,3.52,0,3.52s0,1.63,0.21,2.42C0.32,6.36,0.66,6.7,1.09,6.82c0.78,0.21,3.9,0.21,3.9,0.21s3.12,0,3.9-0.21
	c0.43-0.11,0.77-0.45,0.88-0.89c0.2-0.78,0.2-2.42,0.2-2.42S9.98,1.88,9.77,1.1z M4.32,5V2.03l2.25,1.49L4.32,5z"/>
</svg>
