<?xml version="1.0" encoding="utf-8"?>
<!-- Generator: Adobe Illustrator 23.0.0, SVG Export Plug-In . SVG Version: 6.00 Build 0)  -->
<svg version="1.1" id="レイヤー_1" xmlns="http://www.w3.org/2000/svg" xmlns:xlink="http://www.w3.org/1999/xlink" x="0px"
	 y="0px" viewBox="0 0 9.37 7.62" style="enable-background:new 0 0 9.37 7.62;" xml:space="preserve">
<style type="text/css">
	.st0{fill:#FFFFFF;}
</style>
<path class="st0" d="M2.95,7.62c3.54,0,5.47-2.93,5.47-5.47c0-0.08,0-0.16,0-0.25c0.38-0.27,0.7-0.61,0.96-1
	c-0.35,0.15-0.72,0.26-1.11,0.3c0.4-0.24,0.7-0.61,0.85-1.06C8.74,0.36,8.33,0.52,7.89,0.61C7.54,0.23,7.04,0,6.49,0
	C5.43,0,4.57,0.86,4.57,1.92c0,0.15,0.02,0.3,0.05,0.44C3.02,2.28,1.6,1.52,0.65,0.35C0.49,0.64,0.39,0.97,0.39,1.32
	c0,0.67,0.34,1.26,0.85,1.6c-0.31-0.01-0.61-0.1-0.87-0.24c0,0.01,0,0.01,0,0.03c0,0.93,0.66,1.71,1.54,1.89
	C1.75,4.64,1.59,4.66,1.41,4.66c-0.12,0-0.24-0.01-0.36-0.03c0.24,0.76,0.96,1.32,1.8,1.34C2.19,6.48,1.36,6.79,0.46,6.79
	C0.3,6.79,0.15,6.78,0,6.76C0.85,7.3,1.86,7.62,2.95,7.62"/>
</svg>
