<?xml version="1.0" encoding="utf-8"?>
<!-- Generator: Adobe Illustrator 23.0.0, SVG Export Plug-In . SVG Version: 6.00 Build 0)  -->
<svg version="1.1" id="レイヤー_1" xmlns="http://www.w3.org/2000/svg" xmlns:xlink="http://www.w3.org/1999/xlink" x="0px"
	 y="0px" viewBox="0 0 125.5 56.1" style="enable-background:new 0 0 125.5 56.1;" xml:space="preserve">
<style type="text/css">
	.st0{fill:#FFFFFF;}
</style>
<path class="st0" d="M9.9,47.1c-1.5,0-2.6,1.2-2.6,2.6v6.4h1.9v-3.6h4.7v-1.9H9.2v-0.9c0-0.4,0.3-0.8,0.8-0.8h3.9V47h-4"/>
<rect x="33.7" y="47.1" class="st0" width="1.9" height="9"/>
<path class="st0" d="M57.4,53.5v-6.4h-1.9v6.4c0,1.5,1.2,2.6,2.6,2.6H62v-1.9h-3.9C57.8,54.2,57.4,53.9,57.4,53.5"/>
<path class="st0" d="M115.8,50.6h-1.4c-0.4,0-0.8-0.3-0.8-0.5v-0.6c0-0.3,0.3-0.5,0.8-0.5h3.7v-1.9h-3.7c-1.5,0-2.6,1.1-2.6,2.4v0.6
	c0,1.3,1.2,2.4,2.6,2.4h1.4c0.4,0,0.8,0.3,0.8,0.6v0.6c0,0.3-0.4,0.6-0.8,0.6h-3.7v1.9h3.7c1.5,0,2.6-1.1,2.6-2.5v-0.6
	C118.4,51.7,117.2,50.6,115.8,50.6"/>
<path class="st0" d="M88.9,47.1h-0.6c-0.7,0-1.2,0.3-1.7,0.7c-0.5-0.4-1-0.7-1.7-0.7h-0.6c-1.5,0-2.6,1.2-2.6,2.6v6.4h1.9v-6.4
	c0-0.4,0.3-0.8,0.8-0.8H85c0.4,0,0.8,0.3,0.8,0.8v6.4h1.9v-6.4c0-0.4,0.3-0.8,0.8-0.8h0.6c0.4,0,0.8,0.3,0.8,0.8v6.4h1.9v-6.4
	C91.6,48.3,90.4,47.1,88.9,47.1"/>
<g>
	<path class="st0" d="M91.6,24.5v10c0,0.6,0.6,1.1,1.3,1.1c0,0,1.1,0,1.3,0c0-0.2,0-12,0-12.2h-1.3C92.2,23.4,91.6,23.9,91.6,24.5z"
		/>
	<path class="st0" d="M24.4,14.5c-0.7,0-1.3,0.5-1.3,1.1v19.2c0,0.6,0.6,1.1,1.3,1.1c0.7,0,1.3-0.5,1.3-1.1V15.6
		C25.7,15,25.1,14.5,24.4,14.5z"/>
	<path class="st0" d="M114.9,0H10.6C4.8,0,0,4.2,0,9.4v23.9c0,5.2,4.8,9.4,10.6,9.4h104.3c5.9,0,10.6-4.2,10.6-9.4V9.4
		C125.5,4.2,120.7,0,114.9,0z M17,15.7h-3.3V8.9c0-1.1-1.4-2.1-3.1-2.1C8.9,6.8,7.5,8,7.5,9.4v23.8c0,1.4,1.4,2.6,3.1,2.6
		c1.7,0,3.1-1,3.1-2.1v-8.2H17v8.2c0,2.7-2.9,4.8-6.4,4.8s-6.4-2.3-6.4-5.2V9.4c0-2.8,2.9-5.2,6.4-5.2c3.6,0,6.5,2.1,6.4,4.8V15.7z
		 M28.9,34.9c0,2.1-2,3.8-4.6,3.8c-2.5,0-4.6-1.7-4.6-3.8V15.6c0-2.1,2-3.8,4.6-3.8c2.6,0,4.7,1.7,4.6,3.8V34.9z M46.8,38.4h-3.3
		V8.2c0-0.6-0.6-1.1-1.3-1.1s-1.3,0.5-1.3,1.1v30.2h-3.3V8.2c0-0.6-0.6-1.1-1.3-1.1S35,7.6,35,8.2v30.2h-3.3V8.2
		c0-2.1,2-3.8,4.6-3.8c1,0,2.1,0.3,2.9,0.9c0,0,0,0,0.1,0c0.9-0.6,1.9-0.9,2.9-0.9c2.5,0,4.6,1.7,4.6,3.8V38.4z M52.8,38.3h-3.3
		V12.1h3.2h0.1V38.3z M51.2,9.6l-3-3l2.9-2.9l3.1,2.9L51.2,9.6z M64.7,18.4c0,1.4-0.6,3.4-1.4,4.7c0,0-1.3,2-1.4,2.1
		c0.1,0.1,1.4,2.1,1.4,2.1c0.8,1.3,1.4,3.3,1.4,4.7v6.3h-3.3V32c0-1-0.5-2.8-1.1-3.7c0,0-0.1-0.2-0.2-0.3c-0.1,0.1-0.2,0.3-0.2,0.3
		c-0.6,0.9-1.1,2.7-1.1,3.7v6.3h-3.3V32c0-1.4,0.6-3.5,1.4-4.7c0,0,1.3-2,1.4-2.1c-0.1-0.1-1.4-2.1-1.4-2.1
		c-0.8-1.3-1.4-3.3-1.4-4.7v-6.3h3.3v6.3c0,1,0.5,2.8,1.1,3.7c0,0,0.1,0.2,0.2,0.3c0.1-0.1,0.2-0.3,0.2-0.3c0.6-0.9,1.1-2.7,1.1-3.7
		v-6.3h3.2h0.1V18.4z M85.7,34.7c0,2.1-2,3.8-4.6,3.8c-1,0-2.1-0.3-2.9-0.9h-0.1c-0.1,0-0.1,0-0.1,0c-0.8,0.6-1.8,0.9-2.9,0.9
		c-2.5,0-4.6-1.7-4.6-3.8V4.5h3.3v30.2c0,0.6,0.6,1.1,1.3,1.1c0.7,0,1.3-0.5,1.3-1.1V4.5h3.3v30.2c0,0.6,0.6,1.1,1.3,1.1
		s1.3-0.5,1.3-1.1h0.1V4.5h3.2h0.1V34.7z M97.6,38.4H93c-2.5,0-4.6-1.7-4.6-3.8V24.5c0-2.1,2-3.8,4.6-3.8c0,0,1.1,0,1.3,0
		c0-0.2,0-4.8,0-4.8c0-0.6-0.6-1.1-1.3-1.1h-4.1v-2.7H89h3.9c2.6,0,4.7,1.7,4.7,3.8V38.4z M110.1,23.5c0,1.5-0.3,3.7-0.7,5.2
		l-2.9,9.6h-3.4l-2.8-9.4l-0.1-0.3c-0.3-1.4-0.6-3.6-0.6-5.1V12.1h3.3v11.4c0,1.2,0.3,3.3,0.6,4.5c0,0,1.2,4.2,1.4,5
		c0-0.2,0.1-0.4,0.1-0.4l1.2-4.4c0.3-1.3,0.6-3.3,0.6-4.6V12.1h3.2h0.1V23.5z M121.5,26.9c0,0-5.8,0-6,0c0,0.2,0,7.6,0,7.6v0.3
		c0,0.6,0.6,1.1,1.3,1.1s1.3-0.5,1.3-1.1v-3.4h3.4v3.4c0,2.1-2,3.8-4.6,3.8c-2.5,0-4.6-1.7-4.6-3.8v-0.3V15.6c0-2.1,2-3.8,4.6-3.8
		c2.5,0,4.6,1.7,4.6,3.8V26.9z"/>
	<path class="st0" d="M116.8,14.5c-0.7,0-1.3,0.5-1.3,1.1c0,0,0,8.4,0,8.6c0.2,0,2.4,0,2.6,0c0-0.2,0-8.6,0-8.6
		C118.1,15,117.5,14.5,116.8,14.5z"/>
</g>
</svg>
